<?xml version="1.0" standalone="no"?>
<!DOCTYPE svg PUBLIC "-//W3C//DTD SVG 20010904//EN"
 "http://www.w3.org/TR/2001/REC-SVG-20010904/DTD/svg10.dtd">
<svg version="1.0" xmlns="http://www.w3.org/2000/svg"
 width="470.000000pt" height="470.000000pt" viewBox="0 0 470.000000 470.000000"
 preserveAspectRatio="xMidYMid meet">
<metadata>
Created by potrace 1.11, written by Peter Selinger 2001-2013
</metadata>
<g transform="translate(0.000000,470.000000) scale(0.100000,-0.100000)"
fill="#000000" stroke="none">
<path d="M705 4684 c-142 -24 -257 -75 -379 -166 -66 -50 -186 -181 -186 -205
0 -6 -4 -13 -9 -15 -16 -6 -81 -156 -103 -239 -22 -83 -22 -92 -23 -952 l-2
-867 36 21 c42 26 134 79 211 122 84 47 417 212 487 241 35 14 86 37 115 50
49 22 95 41 262 107 32 13 60 29 63 35 2 6 -3 36 -11 65 -8 30 -18 65 -20 79
-42 201 -45 221 -51 260 -45 335 -53 446 -55 775 -1 170 5 377 15 475 2 19 7
78 10 131 l7 97 -148 -1 c-82 -1 -180 -6 -219 -13z"/>
<path d="M1399 4681 c0 -9 -2 -29 -4 -46 -21 -169 -29 -332 -29 -580 0 -218
10 -507 19 -555 2 -14 6 -43 9 -65 4 -35 9 -69 33 -210 3 -16 16 -79 30 -140
14 -60 28 -122 30 -137 6 -33 12 -32 188 22 68 21 315 86 365 96 14 3 72 16
130 29 58 13 122 27 144 30 21 3 41 7 45 10 4 2 21 6 37 9 35 7 197 35 239 42
17 3 37 7 45 9 8 2 39 7 69 10 30 3 57 8 60 9 3 2 31 7 61 11 30 3 66 8 80 10
30 5 94 13 153 20 23 3 58 8 77 11 19 2 50 6 67 9 36 4 44 11 88 70 17 22 32
42 35 45 27 27 78 99 73 104 -4 3 -2 6 4 6 11 0 27 20 241 305 67 88 128 169
137 180 8 11 60 81 115 155 55 74 103 140 108 145 27 33 212 298 212 305 0 16
-175 81 -260 95 -25 5 -620 9 -1322 10 -1163 2 -1278 0 -1279 -14z"/>
<path d="M4477 4320 c-20 -27 -37 -54 -37 -59 0 -5 -4 -11 -8 -13 -5 -1 -33
-37 -63 -78 -59 -82 -59 -82 -92 -125 -13 -16 -59 -79 -102 -140 -44 -60 -85
-117 -92 -125 -7 -8 -66 -87 -132 -175 -133 -177 -153 -202 -195 -251 -15 -19
-24 -34 -20 -35 9 0 104 1 329 7 72 1 243 3 382 3 l251 1 -3 328 c-3 357 -9
401 -70 537 -28 62 -96 175 -105 175 -3 0 -22 -22 -43 -50z"/>
<path d="M3997 3003 c-1 -1 -67 -4 -147 -8 -80 -4 -161 -8 -180 -10 -19 -2
-75 -7 -125 -10 -71 -6 -92 -11 -102 -25 -8 -11 -19 -25 -26 -32 -7 -7 -30
-35 -52 -63 -22 -27 -42 -52 -45 -55 -3 -3 -25 -30 -50 -60 -25 -30 -47 -57
-50 -60 -3 -3 -32 -39 -65 -80 -33 -41 -67 -81 -75 -90 -8 -9 -33 -38 -55 -65
-22 -27 -58 -70 -80 -95 -22 -26 -51 -60 -65 -76 -37 -43 -106 -123 -223 -258
-27 -31 -130 -148 -142 -160 -5 -6 -46 -52 -90 -101 -44 -49 -95 -105 -112
-124 -18 -19 -33 -38 -33 -43 0 -13 93 -95 253 -224 23 -19 129 -93 180 -126
23 -14 48 -32 57 -38 116 -84 531 -296 735 -375 194 -76 399 -144 570 -190
167 -45 379 -96 450 -109 66 -12 105 -17 105 -14 0 2 9 28 20 58 11 30 23 71
26 90 3 19 8 42 11 50 4 8 8 530 9 1158 l1 1144 -349 -4 c-192 -1 -350 -4
-351 -5z"/>
<path d="M2920 2904 c-14 -3 -50 -9 -80 -14 -30 -5 -73 -12 -95 -15 -22 -3
-62 -10 -90 -15 -27 -5 -61 -12 -75 -14 -69 -13 -247 -50 -345 -72 -60 -14
-118 -27 -128 -29 -10 -3 -27 -7 -37 -10 -10 -3 -28 -8 -40 -10 -28 -5 -379
-105 -407 -116 -22 -8 -22 -9 22 -106 106 -238 189 -380 337 -580 l69 -92 42
47 c23 26 47 52 52 58 22 24 141 158 158 178 10 12 33 37 50 56 18 19 63 71
101 115 38 44 72 82 76 85 4 3 44 50 90 105 46 55 86 102 89 105 3 3 22 25 42
50 20 25 45 55 55 67 11 12 26 30 34 40 51 62 105 129 110 133 3 3 11 13 19
23 15 18 10 19 -49 11z"/>
<path d="M1225 2473 c-72 -29 -282 -118 -345 -146 -135 -59 -180 -81 -365
-175 -93 -47 -290 -163 -436 -257 l-77 -49 2 -560 c2 -309 5 -568 9 -576 3 -8
8 -32 11 -52 11 -75 92 -255 132 -296 8 -7 14 -18 14 -23 0 -14 146 -157 178
-173 27 -14 29 -13 88 42 33 32 105 98 160 148 165 153 649 635 647 645 -2 5
1 8 6 6 7 -1 492 483 569 568 5 5 -23 50 -69 110 -82 108 -206 292 -245 365
-14 25 -43 79 -65 120 -23 41 -66 131 -97 200 -30 69 -55 125 -56 126 -1 1
-28 -10 -61 -23z"/>
<path d="M1920 1207 c-69 -72 -283 -289 -475 -482 -308 -308 -446 -442 -680
-659 l-60 -56 40 -1 c22 -1 748 -3 1613 -4 1685 -2 1632 -3 1780 48 72 26 185
84 190 98 2 5 8 9 14 9 6 0 25 13 43 29 l33 29 -44 7 c-73 11 -457 109 -569
145 -33 11 -89 29 -125 41 -61 20 -201 70 -245 89 -11 4 -54 22 -95 38 -265
107 -566 265 -795 417 -124 82 -313 224 -363 273 -49 47 -124 112 -130 112 -4
0 -63 -60 -132 -133z"/>
</g>
</svg>
